<svg width="453.37255859375px" height="122.021240234375px" xmlns="http://www.w3.org/2000/svg" viewBox="23.313720703125 13.9893798828125 453.37255859375 122.021240234375" style="background: rgba(0, 0, 0, 0);" preserveAspectRatio="xMidYMid"><defs><linearGradient id="editing-shiny-gradient" x1="0.04322727117869957" x2="0.9567727288213004" y1="0.2966316784620999" y2="0.7033683215379001" gradientUnits="objectBoundingBox"><stop offset="0.0" stop-color="#ff69b4"></stop><stop offset="0.5" stop-color="#ff69b4"></stop><stop offset="1.0" stop-color="#ff69b4"></stop></linearGradient><linearGradient id="editing-shiny-gradient2" x1="0" x2="0" y1="0" y2="1"><stop offset="0.2" stop-color="#fff" stop-opacity="0.8"></stop><stop offset="0.8" stop-color="#fff" stop-opacity="0"></stop></linearGradient><filter id="editing-shiny2" x="-100%" y="-100%" width="300%" height="300%"><feMorphology operator="erode" radius="2"></feMorphology></filter><filter id="editing-shiny" x="-100%" y="-100%" width="300%" height="300%"><feFlood flood-color="#fff" result="flood"></feFlood><feConvolveMatrix in="SourceGraphic" result="conv" order="8,8" divisor="1" kernelMatrix="0 0 0 0 0 0 0 0 0 0 0 1 1 0 0 0 0 0 0 1 1 0 0 0 0 0 1 0 0 1 0 0 0 0 1 0 0 1 0 0 0 1 0 0 0 0 1 0 0 1 1 0 0 1 1 0 0 0 0 1 1 0 0 0 "></feConvolveMatrix><feOffset dx="0" dy="4" in="conv" result="offset"></feOffset><feComposite operator="in" in="flood" in2="offset" result="comp"></feComposite><feGaussianBlur in="offset" stdDeviation="3" result="shadow"></feGaussianBlur><feColorMatrix in="shadow" type="matrix" values="0.7 0 0 0 0  0 0.7 0 0 0  0 0 0.7 0 0  0 0 0 0.3 0" result="dark-shadow"></feColorMatrix><feOffset dx="0" dy="4" in="dark-shadow" result="offset-shadow"></feOffset><feOffset dx="0" dy="2" in="conv" result="offset-2"></feOffset><feComposite operator="out" in="offset" in2="offset-2" result="edge-diff"></feComposite><feGaussianBlur in="edge-diff" stdDeviation="1" result="edge-blur"></feGaussianBlur><feColorMatrix in="edge-blur" result="edge-shadow" type="matrix" values="0 0 0 0 0  0 0 0 0 0  0 0 0 0 0  0 0 0 0.5 0"></feColorMatrix><feComposite operator="in" in="edge-shadow" in2="offset" result="edge-shadow-in"></feComposite><feOffset dx="0" dy="1" in="edge-shadow-in" result="edge-shadow-final"></feOffset><feMerge result="out"><feMergeNode in="offset-shadow"></feMergeNode><feMergeNode in="comp"></feMergeNode><feMergeNode in="edge-shadow-final"></feMergeNode><feMergeNode in="SourceGraphic"></feMergeNode></feMerge></filter></defs><g filter="url(#editing-shiny)"><g transform="translate(90.34999144077301, 104.46218872070312)"><path d="M34.50-13.25L34.50-13.25L34.50-13.25Q36.16-12.03 36.16-9.44L36.16-9.44L36.16-9.44Q36.16-6.85 35.04-5.02L35.04-5.02L35.04-5.02Q33.92-3.20 31.74-1.79L31.74-1.79L31.74-1.79Q27.07 1.22 18.91 1.22L18.91 1.22L18.91 1.22Q10.75 1.22 6.30-3.04L6.30-3.04L6.30-3.04Q1.86-7.30 1.86-14.85L1.86-14.85L1.86-14.85Q1.86-25.54 7.42-33.66L7.42-33.66L7.42-33.66Q11.65-39.68 19.20-42.24L19.20-42.24L19.20-42.24Q23.10-43.52 26.94-43.52L26.94-43.52L26.94-43.52Q30.78-43.52 33.15-43.01L33.15-43.01L33.15-43.01Q35.52-42.50 37.31-41.47L37.31-41.47L37.31-41.47Q41.22-39.23 41.22-35.65L41.22-35.65L41.22-35.65Q41.22-32.38 38.14-29.95L38.14-29.95L38.14-29.95Q35.33-27.78 33.02-27.78L33.02-27.78L33.02-27.78Q30.72-27.78 29.76-28.10L29.76-28.10L29.76-28.10Q30.02-30.40 30.02-31.90L30.02-31.90L30.02-31.90Q30.02-33.41 29.95-34.50L29.95-34.50L29.95-34.50Q29.89-35.58 29.57-36.61L29.57-36.61L29.57-36.61Q28.93-38.98 26.98-38.98L26.98-38.98L26.98-38.98Q25.02-38.98 23.07-37.15L23.07-37.15L23.07-37.15Q21.12-35.33 19.46-32.26L19.46-32.26L19.46-32.26Q15.68-25.28 15.68-17.02L15.68-17.02L15.68-17.02Q15.68-13.06 17.92-10.78L17.92-10.78L17.92-10.78Q20.16-8.51 24.96-8.51L24.96-8.51L24.96-8.51Q28.54-8.51 31.94-10.88L31.94-10.88L31.94-10.88Q33.41-11.90 34.50-13.25ZM67.39-10.82L67.39-10.82L67.39-10.82Q68.99-9.73 68.99-7.33L68.99-7.33L68.99-7.33Q68.99-4.93 67.78-3.39L67.78-3.39L67.78-3.39Q66.56-1.86 64.58-0.83L64.58-0.83L64.58-0.83Q60.48 1.28 56.06 1.28L56.06 1.28L56.06 1.28Q51.65 1.28 49.06 0.32L49.06 0.32L49.06 0.32Q46.46-0.64 44.74-2.43L44.74-2.43L44.74-2.43Q41.34-5.82 41.34-12.03L41.34-12.03L41.34-12.03Q41.34-21.70 46.59-27.58L46.59-27.58L46.59-27.58Q52.22-33.92 62.02-33.92L62.02-33.92L62.02-33.92Q68.10-33.92 71.10-31.36L71.10-31.36L71.10-31.36Q73.34-29.44 73.34-26.30L73.34-26.30L73.34-26.30Q73.34-15.04 53.89-15.04L53.89-15.04L53.89-15.04Q53.63-13.38 53.63-11.97L53.63-11.97L53.63-11.97Q53.63-9.02 54.94-7.90L54.94-7.90L54.94-7.90Q56.26-6.78 58.69-6.78L58.69-6.78L58.69-6.78Q61.12-6.78 63.71-7.90L63.71-7.90L63.71-7.90Q66.30-9.02 67.39-10.82ZM54.34-17.79L54.34-17.79L54.34-17.79Q58.88-17.79 61.50-20.61L61.50-20.61L61.50-20.61Q64.13-23.30 64.13-27.58L64.13-27.58L64.13-27.58Q64.13-29.06 63.58-29.86L63.58-29.86L63.58-29.86Q63.04-30.66 61.95-30.66L61.95-30.66L61.95-30.66Q60.86-30.66 59.94-30.24L59.94-30.24L59.94-30.24Q59.01-29.82 58.05-28.42L58.05-28.42L58.05-28.42Q55.68-25.22 54.34-17.79ZM106.94-26.62L106.94-26.62L106.94-26.62Q106.94-23.94 104.70-22.27L104.70-22.27L104.70-22.27Q102.46-20.61 98.82-20.61L98.82-20.61L98.82-20.61Q97.28-20.61 96.38-21.06L96.38-21.06L96.38-21.06Q97.09-22.72 97.31-24.80L97.31-24.80L97.31-24.80Q97.54-26.88 97.54-27.46L97.54-27.46L97.54-27.46Q97.54-30.14 95.68-30.14L95.68-30.14L95.68-30.14Q94.40-30.14 92.96-28.54L92.96-28.54L92.96-28.54Q91.52-26.94 90.30-24.45L90.30-24.45L90.30-24.45Q87.62-18.69 87.62-12.86L87.62-12.86L87.62-12.86Q87.62-9.66 88.83-8.22L88.83-8.22L88.83-8.22Q90.05-6.78 92.74-6.78L92.74-6.78L92.74-6.78Q96.45-6.78 99.39-9.86L99.39-9.86L99.39-9.86Q100.22-10.82 100.67-11.90L100.67-11.90L100.67-11.90Q103.10-10.62 103.10-7.10L103.10-7.10L103.10-7.10Q103.10-3.52 99.14-1.15L99.14-1.15L99.14-1.15Q95.04 1.28 88.51 1.28L88.51 1.28L88.51 1.28Q75.52 1.28 75.52-12.48L75.52-12.48L75.52-12.48Q75.52-22.53 81.22-28.29L81.22-28.29L81.22-28.29Q86.72-33.92 96.83-33.92L96.83-33.92L96.83-33.92Q106.94-33.92 106.94-26.62ZM134.59-10.82L134.59-10.82L134.59-10.82Q136.19-9.73 136.19-7.33L136.19-7.33L136.19-7.33Q136.19-4.93 134.98-3.39L134.98-3.39L134.98-3.39Q133.76-1.86 131.78-0.83L131.78-0.83L131.78-0.83Q127.68 1.28 123.26 1.28L123.26 1.28L123.26 1.28Q118.85 1.28 116.26 0.32L116.26 0.32L116.26 0.32Q113.66-0.64 111.94-2.43L111.94-2.43L111.94-2.43Q108.54-5.82 108.54-12.03L108.54-12.03L108.54-12.03Q108.54-21.70 113.79-27.58L113.79-27.58L113.79-27.58Q119.42-33.92 129.22-33.92L129.22-33.92L129.22-33.92Q135.30-33.92 138.30-31.36L138.30-31.36L138.30-31.36Q140.54-29.44 140.54-26.30L140.54-26.30L140.54-26.30Q140.54-15.04 121.09-15.04L121.09-15.04L121.09-15.04Q120.83-13.38 120.83-11.97L120.83-11.97L120.83-11.97Q120.83-9.02 122.14-7.90L122.14-7.90L122.14-7.90Q123.46-6.78 125.89-6.78L125.89-6.78L125.89-6.78Q128.32-6.78 130.91-7.90L130.91-7.90L130.91-7.90Q133.50-9.02 134.59-10.82ZM121.54-17.79L121.54-17.79L121.54-17.79Q126.08-17.79 128.70-20.61L128.70-20.61L128.70-20.61Q131.33-23.30 131.33-27.58L131.33-27.58L131.33-27.58Q131.33-29.06 130.78-29.86L130.78-29.86L130.78-29.86Q130.24-30.66 129.15-30.66L129.15-30.66L129.15-30.66Q128.06-30.66 127.14-30.24L127.14-30.24L127.14-30.24Q126.21-29.82 125.25-28.42L125.25-28.42L125.25-28.42Q122.88-25.22 121.54-17.79ZM175.04-22.46L175.04-22.46L175.04-22.46Q175.94-24.83 175.94-26.88L175.94-26.88L175.94-26.88Q175.94-30.66 172.86-30.66L172.86-30.66L172.86-30.66Q171.26-30.66 169.95-29.22L169.95-29.22L169.95-29.22Q168.64-27.78 168.64-25.98L168.64-25.98L168.64-25.98Q168.64-24.70 169.66-23.68L169.66-23.68L169.66-23.68Q171.14-22.27 174.91-19.97L174.91-19.97L174.91-19.97Q178.69-17.66 180.13-15.78L180.13-15.78L180.13-15.78Q181.57-13.89 181.57-11.30L181.57-11.30L181.57-11.30Q181.57-8.70 180.32-6.34L180.32-6.34L180.32-6.34Q179.07-3.97 176.83-2.30L176.83-2.30L176.83-2.30Q172.03 1.28 164.35 1.28L164.35 1.28L164.35 1.28Q160.19 1.28 156.99-0.90L156.99-0.90L156.99-0.90Q153.79-3.01 153.79-5.50L153.79-5.50L153.79-5.50Q153.79-8 155.62-9.47L155.62-9.47L155.62-9.47Q157.44-10.94 160.13-10.94L160.13-10.94L160.13-10.94Q162.82-10.94 164.48-9.92L164.48-9.92L164.48-9.92Q163.65-7.81 163.65-6.40L163.65-6.40L163.65-6.40Q163.65-2.18 167.23-2.18L167.23-2.18L167.23-2.18Q168.77-2.18 169.79-3.14L169.79-3.14L169.79-3.14Q170.82-4.10 170.82-5.76L170.82-5.76L170.82-5.76Q170.82-9.02 165.31-12.48L165.31-12.48L165.31-12.48Q160.83-15.42 159.81-16.58L159.81-16.58L159.81-16.58Q158.08-18.62 158.08-21.18L158.08-21.18L158.08-21.18Q158.08-23.74 159.30-26.18L159.30-26.18L159.30-26.18Q160.51-28.61 162.75-30.34L162.75-30.34L162.75-30.34Q167.42-33.92 175.55-33.92L175.55-33.92L175.55-33.92Q179.71-33.92 182.18-32.26L182.18-32.26L182.18-32.26Q184.64-30.59 184.64-27.78L184.64-27.78L184.64-27.78Q184.64-24.96 182.94-23.36L182.94-23.36L182.94-23.36Q181.25-21.76 178.18-21.76L178.18-21.76L178.18-21.76Q176.06-21.76 175.04-22.46ZM202.30-3.52L202.30-3.52L202.30-3.52Q200.32 1.28 193.98 1.28L193.98 1.28L193.98 1.28Q190.78 1.28 188.74-0.96L188.74-0.96L188.74-0.96Q187.07-2.82 187.07-4.93L187.07-4.93L187.07-4.93Q187.07-9.73 189.31-20.22L189.31-20.22L193.98-44.80L206.98-46.08L200.77-13.70L200.77-13.70Q199.68-8.96 199.68-7.30L199.68-7.30L199.68-7.30Q199.68-3.65 202.30-3.52ZM210.53-1.92L210.53-1.92L210.53-1.92Q209.02-3.58 208.35-6.21L208.35-6.21L208.35-6.21Q207.68-8.83 207.68-13.12L207.68-13.12L207.68-13.12Q207.68-17.41 209.15-21.31L209.15-21.31L209.15-21.31Q210.62-25.22 213.31-28.03L213.31-28.03L213.31-28.03Q218.82-33.92 227.90-33.92L227.90-33.92L227.90-33.92Q231.17-33.92 233.54-32.83L233.54-32.83L244.48-33.92L239.74-8.96L239.74-8.96Q239.55-8.19 239.55-6.78L239.55-6.78L239.55-6.78Q239.55-5.38 240.42-4.48L240.42-4.48L240.42-4.48Q241.28-3.58 242.56-3.46L242.56-3.46L242.56-3.46Q241.92-1.28 239.58 0L239.58 0L239.58 0Q237.25 1.28 234.62 1.28L234.62 1.28L234.62 1.28Q232 1.28 230.24 0.29L230.24 0.29L230.24 0.29Q228.48-0.70 227.97-2.37L227.97-2.37L227.97-2.37Q226.94-0.77 224.77 0.26L224.77 0.26L224.77 0.26Q222.59 1.28 219.68 1.28L219.68 1.28L219.68 1.28Q216.77 1.28 214.40 0.51L214.40 0.51L214.40 0.51Q212.03-0.26 210.53-1.92ZM224.03-27.90L224.03-27.90L224.03-27.90Q223.30-26.75 222.66-24.80L222.66-24.80L222.66-24.80Q222.02-22.85 220.96-17.63L220.96-17.63L220.96-17.63Q219.90-12.42 219.90-8.70L219.90-8.70L219.90-8.70Q219.90-4.99 220.48-3.90L220.48-3.90L220.48-3.90Q221.06-2.82 222.08-2.82L222.08-2.82L222.08-2.82Q224.13-2.82 225.63-4.77L225.63-4.77L225.63-4.77Q227.14-6.72 227.71-10.18L227.71-10.18L231.10-28.93L231.10-28.93Q229.76-30.08 228.19-30.08L228.19-30.08L228.19-30.08Q226.62-30.08 225.70-29.57L225.70-29.57L225.70-29.57Q224.77-29.06 224.03-27.90ZM268.29-7.23L268.29-7.23L268.29-7.23Q264.96-3.78 258.88-3.78L258.88-3.78L258.88-3.78Q251.26-3.78 249.66-9.34L249.66-9.34L249.66-9.34Q249.15-11.01 249.15-12.86L249.15-12.86L249.15-12.86Q249.15-14.72 249.54-16.64L249.54-16.64L252.54-32.64L265.54-33.92L262.02-15.30L262.02-15.30Q261.89-14.46 261.70-13.57L261.70-13.57L261.70-13.57Q261.50-12.67 261.50-11.74L261.50-11.74L261.50-11.74Q261.50-10.82 261.82-10.21L261.82-10.21L261.82-10.21Q262.14-9.60 262.59-9.22L262.59-9.22L262.59-9.22Q263.36-8.70 264.74-8.70L264.74-8.70L264.74-8.70Q266.11-8.70 267.30-10.37L267.30-10.37L267.30-10.37Q268.48-12.03 269.06-14.91L269.06-14.91L272.58-32.64L285.18-33.92L280.38-8.77L280.38-8.77Q278.02 3.52 273.15 8.38L273.15 8.38L273.15 8.38Q270.66 10.88 267.42 11.87L267.42 11.87L267.42 11.87Q264.19 12.86 260.03 12.86L260.03 12.86L260.03 12.86Q253.31 12.86 249.47 10.75L249.47 10.75L249.47 10.75Q245.63 8.64 245.63 5.12L245.63 5.12L245.63 5.12Q245.63 2.50 247.62 0.99L247.62 0.99L247.62 0.99Q249.60-0.51 252.67-0.51L252.67-0.51L252.67-0.51Q255.36-0.51 257.41 0.64L257.41 0.64L257.41 0.64Q258.62 1.34 259.20 2.24L259.20 2.24L259.20 2.24Q257.73 3.52 257.73 5.63L257.73 5.63L257.73 5.63Q257.73 8.45 260.29 8.45L260.29 8.45L260.29 8.45Q264.51 8.45 266.94-1.28L266.94-1.28L266.94-1.28Q267.65-4.16 268.29-7.23ZM299.81 0.64L299.81 0.64L299.81 0.64Q296.77 0 295.20-0.29L295.20-0.29L295.20-0.29Q293.63-0.58 291.81-0.58L291.81-0.58L291.81-0.58Q289.98-0.58 288.19 0.06L288.19 0.06L288.19 0.06Q287.23-0.51 286.62-1.66L286.62-1.66L286.62-1.66Q286.02-2.82 286.02-4.61L286.02-4.61L286.02-4.61Q286.02-8.38 289.86-11.26L289.86-11.26L306.11-22.98L306.11-22.98Q301.57-24.26 297.44-24.26L297.44-24.26L297.44-24.26Q293.31-24.26 291.84-21.44L291.84-21.44L291.84-21.44Q289.66-24 289.66-28.03L289.66-28.03L289.66-28.03Q289.66-30.72 291.62-32.48L291.62-32.48L291.62-32.48Q293.57-34.24 297.66-34.24L297.66-34.24L297.66-34.24Q299.97-34.24 302.05-33.95L302.05-33.95L302.05-33.95Q304.13-33.66 305.98-33.41L305.98-33.41L309.44-32.90L309.44-32.90Q311.10-32.64 312.80-32.64L312.80-32.64L312.80-32.64Q314.50-32.64 315.78-33.34L315.78-33.34L315.78-33.34Q317.44-31.81 317.44-29.70L317.44-29.70L317.44-29.70Q317.44-26.37 313.34-22.91L313.34-22.91L297.15-10.82L297.15-10.82Q302.14-9.34 304.70-9.34L304.70-9.34L304.70-9.34Q310.08-9.34 312.38-11.90L312.38-11.90L312.38-11.90Q314.18-9.86 314.18-6.30L314.18-6.30L314.18-6.30Q314.18-2.75 311.87-0.74L311.87-0.74L311.87-0.74Q309.57 1.28 305.41 1.28L305.41 1.28L305.41 1.28Q302.85 1.28 299.81 0.64Z" fill="url(#editing-shiny-gradient)"></path></g></g><g filter="url(#editing-shiny2)"><g transform="translate(90.34999144077301, 104.47000122070312)"><path d="M34.50-13.25L34.50-13.25L34.50-13.25Q36.16-12.03 36.16-9.44L36.16-9.44L36.16-9.44Q36.16-6.85 35.04-5.02L35.04-5.02L35.04-5.02Q33.92-3.20 31.74-1.79L31.74-1.79L31.74-1.79Q27.07 1.22 18.91 1.22L18.91 1.22L18.91 1.22Q10.75 1.22 6.30-3.04L6.30-3.04L6.30-3.04Q1.86-7.30 1.86-14.85L1.86-14.85L1.86-14.85Q1.86-25.54 7.42-33.66L7.42-33.66L7.42-33.66Q11.65-39.68 19.20-42.24L19.20-42.24L19.20-42.24Q23.10-43.52 26.94-43.52L26.94-43.52L26.94-43.52Q30.78-43.52 33.15-43.01L33.15-43.01L33.15-43.01Q35.52-42.50 37.31-41.47L37.31-41.47L37.31-41.47Q41.22-39.23 41.22-35.65L41.22-35.65L41.22-35.65Q41.22-32.38 38.14-29.95L38.14-29.95L38.14-29.95Q35.33-27.78 33.02-27.78L33.02-27.78L33.02-27.78Q30.72-27.78 29.76-28.10L29.76-28.10L29.76-28.10Q30.02-30.40 30.02-31.90L30.02-31.90L30.02-31.90Q30.02-33.41 29.95-34.50L29.95-34.50L29.95-34.50Q29.89-35.58 29.57-36.61L29.57-36.61L29.57-36.61Q28.93-38.98 26.98-38.98L26.98-38.98L26.98-38.98Q25.02-38.98 23.07-37.15L23.07-37.15L23.07-37.15Q21.12-35.33 19.46-32.26L19.46-32.26L19.46-32.26Q15.68-25.28 15.68-17.02L15.68-17.02L15.68-17.02Q15.68-13.06 17.92-10.78L17.92-10.78L17.92-10.78Q20.16-8.51 24.96-8.51L24.96-8.51L24.96-8.51Q28.54-8.51 31.94-10.88L31.94-10.88L31.94-10.88Q33.41-11.90 34.50-13.25ZM67.39-10.82L67.39-10.82L67.39-10.82Q68.99-9.73 68.99-7.33L68.99-7.33L68.99-7.33Q68.99-4.93 67.78-3.39L67.78-3.39L67.78-3.39Q66.56-1.86 64.58-0.83L64.58-0.83L64.58-0.83Q60.48 1.28 56.06 1.28L56.06 1.28L56.06 1.28Q51.65 1.28 49.06 0.32L49.06 0.32L49.06 0.32Q46.46-0.64 44.74-2.43L44.74-2.43L44.74-2.43Q41.34-5.82 41.34-12.03L41.34-12.03L41.34-12.03Q41.34-21.70 46.59-27.58L46.59-27.58L46.59-27.58Q52.22-33.92 62.02-33.92L62.02-33.92L62.02-33.92Q68.10-33.92 71.10-31.36L71.10-31.36L71.10-31.36Q73.34-29.44 73.34-26.30L73.34-26.30L73.34-26.30Q73.34-15.04 53.89-15.04L53.89-15.04L53.89-15.04Q53.63-13.38 53.63-11.97L53.63-11.97L53.63-11.97Q53.63-9.02 54.94-7.90L54.94-7.90L54.94-7.90Q56.26-6.78 58.69-6.78L58.69-6.78L58.69-6.78Q61.12-6.78 63.71-7.90L63.71-7.90L63.71-7.90Q66.30-9.02 67.39-10.82ZM54.34-17.79L54.34-17.79L54.34-17.79Q58.88-17.79 61.50-20.61L61.50-20.61L61.50-20.61Q64.13-23.30 64.13-27.58L64.13-27.58L64.13-27.58Q64.13-29.06 63.58-29.86L63.58-29.86L63.58-29.86Q63.04-30.66 61.95-30.66L61.95-30.66L61.95-30.66Q60.86-30.66 59.94-30.24L59.94-30.24L59.94-30.24Q59.01-29.82 58.05-28.42L58.05-28.42L58.05-28.42Q55.68-25.22 54.34-17.79ZM106.94-26.62L106.94-26.62L106.94-26.62Q106.94-23.94 104.70-22.27L104.70-22.27L104.70-22.27Q102.46-20.61 98.82-20.61L98.82-20.61L98.82-20.61Q97.28-20.61 96.38-21.06L96.38-21.06L96.38-21.06Q97.09-22.72 97.31-24.80L97.31-24.80L97.31-24.80Q97.54-26.88 97.54-27.46L97.54-27.46L97.54-27.46Q97.54-30.14 95.68-30.14L95.68-30.14L95.68-30.14Q94.40-30.14 92.96-28.54L92.96-28.54L92.96-28.54Q91.52-26.94 90.30-24.45L90.30-24.45L90.30-24.45Q87.62-18.69 87.62-12.86L87.62-12.86L87.62-12.86Q87.62-9.66 88.83-8.22L88.83-8.22L88.83-8.22Q90.05-6.78 92.74-6.78L92.74-6.78L92.74-6.78Q96.45-6.78 99.39-9.86L99.39-9.86L99.39-9.86Q100.22-10.82 100.67-11.90L100.67-11.90L100.67-11.90Q103.10-10.62 103.10-7.10L103.10-7.10L103.10-7.10Q103.10-3.52 99.14-1.15L99.14-1.15L99.14-1.15Q95.04 1.28 88.51 1.28L88.51 1.28L88.51 1.28Q75.52 1.28 75.52-12.48L75.52-12.48L75.52-12.48Q75.52-22.53 81.22-28.29L81.22-28.29L81.22-28.29Q86.72-33.92 96.83-33.92L96.83-33.92L96.83-33.92Q106.94-33.92 106.94-26.62ZM134.59-10.82L134.59-10.82L134.59-10.82Q136.19-9.73 136.19-7.33L136.19-7.33L136.19-7.33Q136.19-4.93 134.98-3.39L134.98-3.39L134.98-3.39Q133.76-1.86 131.78-0.83L131.78-0.83L131.78-0.83Q127.68 1.28 123.26 1.28L123.26 1.28L123.26 1.28Q118.85 1.28 116.26 0.32L116.26 0.32L116.26 0.32Q113.66-0.64 111.94-2.43L111.94-2.43L111.94-2.43Q108.54-5.82 108.54-12.03L108.54-12.03L108.54-12.03Q108.54-21.70 113.79-27.58L113.79-27.58L113.79-27.58Q119.42-33.92 129.22-33.92L129.22-33.92L129.22-33.92Q135.30-33.92 138.30-31.36L138.30-31.36L138.30-31.36Q140.54-29.44 140.54-26.30L140.54-26.30L140.54-26.30Q140.54-15.04 121.09-15.04L121.09-15.04L121.09-15.04Q120.83-13.38 120.83-11.97L120.83-11.97L120.83-11.97Q120.83-9.02 122.14-7.90L122.14-7.90L122.14-7.90Q123.46-6.78 125.89-6.78L125.89-6.78L125.89-6.78Q128.32-6.78 130.91-7.90L130.91-7.90L130.91-7.90Q133.50-9.02 134.59-10.82ZM121.54-17.79L121.54-17.79L121.54-17.79Q126.08-17.79 128.70-20.61L128.70-20.61L128.70-20.61Q131.33-23.30 131.33-27.58L131.33-27.58L131.33-27.58Q131.33-29.06 130.78-29.86L130.78-29.86L130.78-29.86Q130.24-30.66 129.15-30.66L129.15-30.66L129.15-30.66Q128.06-30.66 127.14-30.24L127.14-30.24L127.14-30.24Q126.21-29.82 125.25-28.42L125.25-28.42L125.25-28.42Q122.88-25.22 121.54-17.79ZM175.04-22.46L175.04-22.46L175.04-22.46Q175.94-24.83 175.94-26.88L175.94-26.88L175.94-26.88Q175.94-30.66 172.86-30.66L172.86-30.66L172.86-30.66Q171.26-30.66 169.95-29.22L169.95-29.22L169.95-29.22Q168.64-27.78 168.64-25.98L168.64-25.98L168.64-25.98Q168.64-24.70 169.66-23.68L169.66-23.68L169.66-23.68Q171.14-22.27 174.91-19.97L174.91-19.97L174.91-19.97Q178.69-17.66 180.13-15.78L180.13-15.78L180.13-15.78Q181.57-13.89 181.57-11.30L181.57-11.30L181.57-11.30Q181.57-8.70 180.32-6.34L180.32-6.34L180.32-6.34Q179.07-3.97 176.83-2.30L176.83-2.30L176.83-2.30Q172.03 1.28 164.35 1.28L164.35 1.28L164.35 1.28Q160.19 1.28 156.99-0.90L156.99-0.90L156.99-0.90Q153.79-3.01 153.79-5.50L153.79-5.50L153.79-5.50Q153.79-8 155.62-9.47L155.62-9.47L155.62-9.47Q157.44-10.94 160.13-10.94L160.13-10.94L160.13-10.94Q162.82-10.94 164.48-9.92L164.48-9.92L164.48-9.92Q163.65-7.81 163.65-6.40L163.65-6.40L163.65-6.40Q163.65-2.18 167.23-2.18L167.23-2.18L167.23-2.18Q168.77-2.18 169.79-3.14L169.79-3.14L169.79-3.14Q170.82-4.10 170.82-5.76L170.82-5.76L170.82-5.76Q170.82-9.02 165.31-12.48L165.31-12.48L165.31-12.48Q160.83-15.42 159.81-16.58L159.81-16.58L159.81-16.58Q158.08-18.62 158.08-21.18L158.08-21.18L158.08-21.18Q158.08-23.74 159.30-26.18L159.30-26.18L159.30-26.18Q160.51-28.61 162.75-30.34L162.75-30.34L162.75-30.34Q167.42-33.92 175.55-33.92L175.55-33.92L175.55-33.92Q179.71-33.92 182.18-32.26L182.18-32.26L182.18-32.26Q184.64-30.59 184.64-27.78L184.64-27.78L184.64-27.78Q184.64-24.96 182.94-23.36L182.94-23.36L182.94-23.36Q181.25-21.76 178.18-21.76L178.18-21.76L178.18-21.76Q176.06-21.76 175.04-22.46ZM202.30-3.52L202.30-3.52L202.30-3.52Q200.32 1.28 193.98 1.28L193.98 1.28L193.98 1.28Q190.78 1.28 188.74-0.96L188.74-0.96L188.74-0.96Q187.07-2.82 187.07-4.93L187.07-4.93L187.07-4.93Q187.07-9.73 189.31-20.22L189.31-20.22L193.98-44.80L206.98-46.08L200.77-13.70L200.77-13.70Q199.68-8.96 199.68-7.30L199.68-7.30L199.68-7.30Q199.68-3.65 202.30-3.52ZM210.53-1.92L210.53-1.92L210.53-1.92Q209.02-3.58 208.35-6.21L208.35-6.21L208.35-6.21Q207.68-8.83 207.68-13.12L207.68-13.12L207.68-13.12Q207.68-17.41 209.15-21.31L209.15-21.31L209.15-21.31Q210.62-25.22 213.31-28.03L213.31-28.03L213.31-28.03Q218.82-33.92 227.90-33.92L227.90-33.92L227.90-33.92Q231.17-33.92 233.54-32.83L233.54-32.83L244.48-33.92L239.74-8.96L239.74-8.96Q239.55-8.19 239.55-6.78L239.55-6.78L239.55-6.78Q239.55-5.38 240.42-4.48L240.42-4.48L240.42-4.48Q241.28-3.58 242.56-3.46L242.56-3.46L242.56-3.46Q241.92-1.28 239.58 0L239.58 0L239.58 0Q237.25 1.28 234.62 1.28L234.62 1.28L234.62 1.28Q232 1.28 230.24 0.29L230.24 0.29L230.24 0.29Q228.48-0.70 227.97-2.37L227.97-2.37L227.97-2.37Q226.94-0.77 224.77 0.26L224.77 0.26L224.77 0.26Q222.59 1.28 219.68 1.28L219.68 1.28L219.68 1.28Q216.77 1.28 214.40 0.51L214.40 0.51L214.40 0.51Q212.03-0.26 210.53-1.92ZM224.03-27.90L224.03-27.90L224.03-27.90Q223.30-26.75 222.66-24.80L222.66-24.80L222.66-24.80Q222.02-22.85 220.96-17.63L220.96-17.63L220.96-17.63Q219.90-12.42 219.90-8.70L219.90-8.70L219.90-8.70Q219.90-4.99 220.48-3.90L220.48-3.90L220.48-3.90Q221.06-2.82 222.08-2.82L222.08-2.82L222.08-2.82Q224.13-2.82 225.63-4.77L225.63-4.77L225.63-4.77Q227.14-6.72 227.71-10.18L227.71-10.18L231.10-28.93L231.10-28.93Q229.76-30.08 228.19-30.08L228.19-30.08L228.19-30.08Q226.62-30.08 225.70-29.57L225.70-29.57L225.70-29.57Q224.77-29.06 224.03-27.90ZM268.29-7.23L268.29-7.23L268.29-7.23Q264.96-3.78 258.88-3.78L258.88-3.78L258.88-3.78Q251.26-3.78 249.66-9.34L249.66-9.34L249.66-9.34Q249.15-11.01 249.15-12.86L249.15-12.86L249.15-12.86Q249.15-14.72 249.54-16.64L249.54-16.64L252.54-32.64L265.54-33.92L262.02-15.30L262.02-15.30Q261.89-14.46 261.70-13.57L261.70-13.57L261.70-13.57Q261.50-12.67 261.50-11.74L261.50-11.74L261.50-11.74Q261.50-10.82 261.82-10.21L261.82-10.21L261.82-10.21Q262.14-9.60 262.59-9.22L262.59-9.22L262.59-9.22Q263.36-8.70 264.74-8.70L264.74-8.70L264.74-8.70Q266.11-8.70 267.30-10.37L267.30-10.37L267.30-10.37Q268.48-12.03 269.06-14.91L269.06-14.91L272.58-32.64L285.18-33.92L280.38-8.77L280.38-8.77Q278.02 3.52 273.15 8.38L273.15 8.38L273.15 8.38Q270.66 10.88 267.42 11.87L267.42 11.87L267.42 11.87Q264.19 12.86 260.03 12.86L260.03 12.86L260.03 12.86Q253.31 12.86 249.47 10.75L249.47 10.75L249.47 10.75Q245.63 8.64 245.63 5.12L245.63 5.12L245.63 5.12Q245.63 2.50 247.62 0.99L247.62 0.99L247.62 0.99Q249.60-0.51 252.67-0.51L252.67-0.51L252.67-0.51Q255.36-0.51 257.41 0.64L257.41 0.64L257.41 0.64Q258.62 1.34 259.20 2.24L259.20 2.24L259.20 2.24Q257.73 3.52 257.73 5.63L257.73 5.63L257.73 5.63Q257.73 8.45 260.29 8.45L260.29 8.45L260.29 8.45Q264.51 8.45 266.94-1.28L266.94-1.28L266.94-1.28Q267.65-4.16 268.29-7.23ZM299.81 0.64L299.81 0.64L299.81 0.64Q296.77 0 295.20-0.29L295.20-0.29L295.20-0.29Q293.63-0.58 291.81-0.58L291.81-0.58L291.81-0.58Q289.98-0.58 288.19 0.06L288.19 0.06L288.19 0.06Q287.23-0.51 286.62-1.66L286.62-1.66L286.62-1.66Q286.02-2.82 286.02-4.61L286.02-4.61L286.02-4.61Q286.02-8.38 289.86-11.26L289.86-11.26L306.11-22.98L306.11-22.98Q301.57-24.26 297.44-24.26L297.44-24.26L297.44-24.26Q293.31-24.26 291.84-21.44L291.84-21.44L291.84-21.44Q289.66-24 289.66-28.03L289.66-28.03L289.66-28.03Q289.66-30.72 291.62-32.48L291.62-32.48L291.62-32.48Q293.57-34.24 297.66-34.24L297.66-34.24L297.66-34.24Q299.97-34.24 302.05-33.95L302.05-33.95L302.05-33.95Q304.13-33.66 305.98-33.41L305.98-33.41L309.44-32.90L309.44-32.90Q311.10-32.64 312.80-32.64L312.80-32.64L312.80-32.64Q314.50-32.64 315.78-33.34L315.78-33.34L315.78-33.34Q317.44-31.81 317.44-29.70L317.44-29.70L317.44-29.70Q317.44-26.37 313.34-22.91L313.34-22.91L297.15-10.82L297.15-10.82Q302.14-9.34 304.70-9.34L304.70-9.34L304.70-9.34Q310.08-9.34 312.38-11.90L312.38-11.90L312.38-11.90Q314.18-9.86 314.18-6.30L314.18-6.30L314.18-6.30Q314.18-2.75 311.87-0.74L311.87-0.74L311.87-0.74Q309.57 1.28 305.41 1.28L305.41 1.28L305.41 1.28Q302.85 1.28 299.81 0.64Z" fill="url(#editing-shiny-gradient2)"></path></g></g><style>text {
  font-size: 64px;
  font-family: Arial Black;
  dominant-baseline: central;
  text-anchor: middle;
}</style></svg>